<?xml version="1.0" encoding="UTF-8" standalone="no"?>
<!-- Created with Inkscape (http://www.inkscape.org/) -->

<svg
   width="77.394638mm"
   height="77.394638mm"
   viewBox="0 0 77.394638 77.394638"
   version="1.1"
   id="svg5"
   xmlns="http://www.w3.org/2000/svg"
   xmlns:svg="http://www.w3.org/2000/svg">
  <defs
     id="defs2" />
  <g
     id="layer1"
     transform="translate(1.0583349,1.0583349)">
    <path
       style="fill:none;stroke:#ffffff;stroke-width:2.11667;stroke-linecap:round;stroke-linejoin:miter;stroke-miterlimit:4;stroke-dasharray:none;stroke-opacity:1"
       d="M 0,0 H 75.277966"
       id="path1063" />
    <path
       style="fill:none;stroke:#ffffff;stroke-width:2.11667;stroke-linecap:round;stroke-linejoin:miter;stroke-miterlimit:4;stroke-dasharray:none;stroke-opacity:1"
       d="M 0,0 V 75.277966"
       id="path1063-4" />
    <path
       style="fill:none;stroke:#ffffff;stroke-width:2.11667;stroke-linecap:round;stroke-linejoin:miter;stroke-miterlimit:4;stroke-dasharray:none;stroke-opacity:1"
       d="M 0,0 69.612004,28.652074"
       id="path1063-4-3" />
    <path
       style="fill:none;stroke:#ffffff;stroke-width:2.11667;stroke-linecap:round;stroke-linejoin:miter;stroke-miterlimit:4;stroke-dasharray:none;stroke-opacity:1"
       d="M 0,0 51.480598,54.92286"
       id="path1063-4-5" />
    <path
       style="fill:none;stroke:#ffffff;stroke-width:2.11667;stroke-linecap:round;stroke-linejoin:miter;stroke-miterlimit:4;stroke-dasharray:none;stroke-opacity:1"
       d="M 0,0 19.483371,72.712931"
       id="path1063-4-4" />
  </g>
  <g
     id="layer2"
     transform="translate(1.0583349,1.0583349)">
    <path
       style="fill:none;stroke:#ffffff;stroke-width:2.11667;stroke-linecap:butt;stroke-linejoin:miter;stroke-miterlimit:4;stroke-dasharray:none;stroke-opacity:1"
       d="M 0.32536698,22.0165 C 2.0245058,19.669498 3.7236445,20.882584 5.4227833,21.582677 7.269137,17.925477 10.012069,15.80527 13.882325,15.617616 12.444841,11.69553 14.492047,9.3996332 17.352906,7.4834408 17.155699,5.0974162 16.460557,2.7113916 17.895185,0.32536698"
       id="path2161" />
    <path
       style="fill:none;stroke:#ffffff;stroke-width:2.11667;stroke-linecap:butt;stroke-linejoin:miter;stroke-miterlimit:4;stroke-dasharray:none;stroke-opacity:1"
       d="M 0.32536698,37.308747 C 3.1729658,35.892123 6.062646,34.629798 9.7610098,36.332646 13.701656,31.524567 17.817413,26.949968 25.161714,26.680094 26.054646,21.959034 27.031428,17.255626 33.295889,13.665414 31.227834,8.9737396 31.209589,4.4026423 34.055079,0"
       id="path2405" />
    <path
       style="fill:none;stroke:#ffffff;stroke-width:2.11667;stroke-linecap:butt;stroke-linejoin:miter;stroke-miterlimit:4;stroke-dasharray:none;stroke-opacity:1"
       d="M 0.21691133,51.950262 C 4.338693,48.885746 8.6036838,48.398995 13.01468,50.54034 17.978957,43.110694 25.044168,38.523487 34.922724,37.742571 36.884104,31.031541 37.321152,23.875914 45.876747,19.088197 44.233117,12.562081 42.3921,6.0277413 47.503582,-0.21691133"
       id="path2440" />
    <path
       style="fill:none;stroke:#ffffff;stroke-width:2.11667;stroke-linecap:butt;stroke-linejoin:miter;stroke-miterlimit:4;stroke-dasharray:none;stroke-opacity:1"
       d="M 64.964942,0.21691133 C 60.166408,8.0026919 58.919365,16.183083 61.928184,24.836347 50.946548,31.085215 49.131035,40.290896 46.852847,49.347328 33.451468,49.83518 25.524509,57.439778 17.786729,65.29031 11.889602,62.994282 6.084252,61.845457 0.75918964,66.700232"
       id="path2475" />
  </g>
</svg>
