<?xml version="1.0" encoding="UTF-8" standalone="no"?>
<!-- Created with Inkscape (http://www.inkscape.org/) -->

<svg
   width="77.394638mm"
   height="77.394638mm"
   viewBox="0 0 77.394638 77.394638"
   version="1.1"
   id="svg5"
   xmlns="http://www.w3.org/2000/svg"
   xmlns:svg="http://www.w3.org/2000/svg">
  <defs
     id="defs2" />
  <g
     id="layer1"
     transform="translate(1.0583349,1.0583349)">
    <path
       style="fill:none;stroke:#ffffff;stroke-width:2.11667;stroke-linecap:round;stroke-linejoin:miter;stroke-miterlimit:4;stroke-dasharray:none;stroke-opacity:1"
       d="M 75.277966,0 H 0"
       id="path1063" />
    <path
       style="fill:none;stroke:#ffffff;stroke-width:2.11667;stroke-linecap:round;stroke-linejoin:miter;stroke-miterlimit:4;stroke-dasharray:none;stroke-opacity:1"
       d="M 75.277966,0 V 75.277966"
       id="path1063-4" />
    <path
       style="fill:none;stroke:#ffffff;stroke-width:2.11667;stroke-linecap:round;stroke-linejoin:miter;stroke-miterlimit:4;stroke-dasharray:none;stroke-opacity:1"
       d="M 75.277966,0 5.665962,28.652074"
       id="path1063-4-3" />
    <path
       style="fill:none;stroke:#ffffff;stroke-width:2.11667;stroke-linecap:round;stroke-linejoin:miter;stroke-miterlimit:4;stroke-dasharray:none;stroke-opacity:1"
       d="M 75.277966,0 23.797368,54.92286"
       id="path1063-4-5" />
    <path
       style="fill:none;stroke:#ffffff;stroke-width:2.11667;stroke-linecap:round;stroke-linejoin:miter;stroke-miterlimit:4;stroke-dasharray:none;stroke-opacity:1"
       d="M 75.277966,0 55.794595,72.712931"
       id="path1063-4-4" />
  </g>
  <g
     id="layer2"
     transform="translate(1.0583349,1.0583349)">
    <path
       style="fill:none;stroke:#ffffff;stroke-width:2.11667;stroke-linecap:butt;stroke-linejoin:miter;stroke-miterlimit:4;stroke-dasharray:none;stroke-opacity:1"
       d="M 74.952599,22.0165 C 73.25346,19.669498 71.554321,20.882584 69.855183,21.582677 68.008829,17.925477 65.265897,15.80527 61.395641,15.617616 62.833125,11.69553 60.785919,9.3996332 57.92506,7.4834408 58.122267,5.0974162 58.817409,2.7113916 57.382781,0.32536698"
       id="path2161" />
    <path
       style="fill:none;stroke:#ffffff;stroke-width:2.11667;stroke-linecap:butt;stroke-linejoin:miter;stroke-miterlimit:4;stroke-dasharray:none;stroke-opacity:1"
       d="M 74.952599,37.308747 C 72.105,35.892123 69.21532,34.629798 65.516956,36.332646 61.57631,31.524567 57.460553,26.949968 50.116252,26.680094 49.22332,21.959034 48.246538,17.255626 41.982077,13.665414 44.050132,8.9737396 44.068377,4.4026423 41.222887,0"
       id="path2405" />
    <path
       style="fill:none;stroke:#ffffff;stroke-width:2.11667;stroke-linecap:butt;stroke-linejoin:miter;stroke-miterlimit:4;stroke-dasharray:none;stroke-opacity:1"
       d="M 75.061055,51.950262 C 70.939273,48.885746 66.674282,48.398995 62.263286,50.54034 57.299009,43.110694 50.233798,38.523487 40.355242,37.742571 38.393862,31.031541 37.956814,23.875914 29.401219,19.088197 31.044849,12.562081 32.885866,6.0277413 27.774384,-0.21691133"
       id="path2440" />
    <path
       style="fill:none;stroke:#ffffff;stroke-width:2.11667;stroke-linecap:butt;stroke-linejoin:miter;stroke-miterlimit:4;stroke-dasharray:none;stroke-opacity:1"
       d="m 10.313024,0.21691133 c 4.798534,7.78578057 6.045577,15.96617167 3.036758,24.61943567 10.981636,6.248868 12.797149,15.454549 15.075337,24.510981 13.401379,0.487852 21.328338,8.09245 29.066118,15.942982 5.897127,-2.296028 11.702477,-3.444853 17.027539,1.409922"
       id="path2475" />
  </g>
</svg>
