<?xml version="1.0" encoding="UTF-8" standalone="no"?>
<!-- Created with Inkscape (http://www.inkscape.org/) -->

<svg
   version="1.1"
   id="svg824"
   width="536.48541"
   height="578.79083"
   viewBox="0 0 536.48541 578.79083"
   xmlns="http://www.w3.org/2000/svg"
   xmlns:svg="http://www.w3.org/2000/svg">
  <defs
     id="defs828" />
  <g
     id="g830"
     transform="translate(-26.12295,-22.751955)">
    <path
       style="fill:#00f900;fill-opacity:1"
       d="m 290.60456,581.16058 c -10.725,-11.16325 -19.8375,-20.35001 -20.25,-20.41502 -0.4125,-0.065 -0.75,8.3568 -0.75,18.71513 0,10.35834 -0.20162,19.03496 -0.44805,19.28138 -0.24642,0.24643 -2.33496,0.2681 -4.64119,0.0482 l -4.19314,-0.39988 0.64429,-18.6315 c 0.35435,-10.24733 0.69668,-23.469 0.76073,-29.3815 0.064,-5.9125 0.40015,-10.70493 0.7469,-10.64985 0.34675,0.0551 9.63046,9.55871 20.63046,21.11919 l 20,21.01905 0.62235,-18.3692 c 0.34228,-10.10305 0.67978,-18.93169 0.75,-19.61919 0.0796,-0.77914 1.69409,-1.25 4.28611,-1.25 h 4.15846 l -0.65846,19.66081 c -0.36215,10.81344 -0.65846,24.08844 -0.65846,29.5 0,5.41155 -0.3375,9.80095 -0.75,9.75421 -0.4125,-0.0467 -9.525,-9.21854 -20.25,-20.3818 z m 40.16353,-10.45963 c -3.38994,-14.82656 -6.16353,-27.56146 -6.16353,-28.29978 0,-0.89644 3.62001,-2.12772 10.8968,-3.70635 17.71833,-3.84382 26.64452,-1.93968 34.90631,7.4462 7.62756,8.66537 9.58083,22.30971 4.61914,32.26653 -4.42616,8.88213 -10.92193,13.0028 -25.59333,16.23542 -5.13091,1.13052 -10.04283,2.27146 -10.91539,2.53543 -1.3236,0.40041 -2.60775,-3.98685 -7.75,-26.47745 z m 22.08201,14.47806 c 6.25088,-1.74609 11.91153,-6.02092 14.43527,-10.90129 3.59182,-6.94582 0.76632,-19.57201 -5.57367,-24.90676 -5.09728,-4.28907 -10.04297,-5.33318 -18.44077,-3.89312 -3.92781,0.67354 -7.49362,1.57677 -7.92401,2.00716 -0.4304,0.4304 1.04385,8.851 3.2761,18.71245 5.09765,22.51997 4.80251,21.60798 6.81219,21.04999 0.91814,-0.25493 4.25485,-1.18572 7.41489,-2.06843 z m -144.36326,2.12779 c -9.40061,-3.51526 -15.73892,-10.09023 -18.41543,-19.10302 -4.95682,-16.69142 4.33665,-32.74939 21.49801,-37.14593 14.77114,-3.78419 30.13646,5.0695 34.54163,19.90331 2.02507,6.81915 1.87705,12.56679 -0.48619,18.87869 -4.32179,11.54295 -13.27382,17.91062 -25.98199,18.48126 -4.69649,0.21089 -8.90213,-0.17149 -11.15603,-1.01431 z m 17.6263,-8.54442 c 15.76477,-7.16179 16.71416,-29.82053 1.58414,-37.80825 -10.59361,-5.59277 -23.75144,-0.57157 -28.53967,10.89111 -6.98829,16.72945 10.63759,34.33022 26.95553,26.91714 z m 168.10419,-4.38502 c -0.59091,-8.60127 -2.48841,-56.15518 -2.24957,-56.37713 0.11942,-0.11097 45.91746,40.51543 47.88729,42.47973 0.41278,0.41161 -1.2966,1.74295 -3.79862,2.95852 l -4.54912,2.21013 -5.30735,-5.01947 -5.30736,-5.01948 -9.72289,4.5127 -9.72289,4.51271 0.32887,7.4331 0.32887,7.43311 -3.28393,1.56304 c -1.80616,0.85967 -3.45326,1.56304 -3.66023,1.56304 -0.20697,0 -0.63135,-3.7125 -0.94307,-8.25 z m 13.8683,-20.96463 c 3.58541,-1.76805 6.46456,-3.45555 6.3981,-3.75 -0.22256,-0.98612 -13.86918,-13.37908 -14.26486,-12.95441 -0.46889,0.50323 0.50879,19.91904 1.00301,19.91904 0.18965,0 3.27833,-1.44658 6.86375,-3.21463 z m -251.22474,12.85568 c -1.78402,-1.17758 -3.02918,-2.72041 -2.76701,-3.42851 0.26216,-0.70811 4.29416,-7.12061 8.96,-14.25 4.66583,-7.1294 8.16466,-12.96254 7.77518,-12.96254 -0.38949,0 -7.60728,2.74205 -16.03954,6.09345 -8.43226,3.3514 -15.54823,5.87661 -15.81326,5.61159 -0.26503,-0.26503 -0.75152,-7.73209 -1.08109,-16.59346 -0.32957,-8.86137 -0.86728,-16.10297 -1.19492,-16.09244 -0.45474,0.0146 -10.28941,14.42068 -17.24397,25.25937 -0.4,0.62341 -2.00815,0.1699 -4.19909,-1.18418 l -3.55082,-2.19453 11.26408,-17.1999 c 6.19525,-9.45994 13.48484,-20.537 16.1991,-24.61568 l 4.93501,-7.41579 0.87066,24.41579 c 0.47886,13.42868 0.99531,24.55723 1.14767,24.73011 0.15235,0.17289 10.35386,-3.53961 22.67001,-8.25 12.31616,-4.71038 22.70139,-8.56433 23.07829,-8.56433 0.60526,0 -29.4596,46.51912 -31.1131,48.14105 -0.35944,0.35258 -2.11318,-0.32242 -3.8972,-1.5 z m 298.65456,-27.42674 -5.58911,-7.71431 -19.64989,-9 c -10.80744,-4.95 -19.64523,-9.225 -19.63954,-9.5 0.006,-0.275 1.86327,-1.81163 4.12795,-3.41473 l 4.1176,-2.91474 14.36105,7.16034 14.36105,7.16033 -0.061,-2.7456 c -0.0335,-1.51008 -1.07212,-8.73272 -2.30797,-16.0503 l -2.24701,-13.30471 3.98749,-2.93244 c 2.19313,-1.61284 4.17155,-2.74839 4.3965,-2.52345 0.22494,0.22495 1.65243,10.10294 3.17218,21.9511 l 2.76319,21.5421 5.60666,7.44912 5.60666,7.44912 -3.39165,2.58693 c -1.8654,1.42281 -3.53416,2.57087 -3.70836,2.55124 -0.1742,-0.0196 -2.83182,-3.50713 -5.90583,-7.75 z M 266.60456,517.53775 C 216.13066,511.046 166.09621,483.05667 133.45341,443.05286 85.641624,384.45942 73.489833,303.55076 101.9235,233.12143 130.65462,161.9553 196.54064,112.59229 273.53927,104.54378 c 14.08212,-1.47197 42.07823,-0.68528 54.56529,1.5333 44.32223,7.87471 81.78456,27.02728 112.56596,57.54919 80.80495,80.12377 82.35775,209.83968 3.49411,291.88649 -32.32142,33.62601 -73.38989,54.74632 -119.68841,61.55223 -5.84558,0.8593 -12.93308,1.56237 -15.75,1.56237 h -5.12166 v -20.77923 -20.77924 l 7.88212,-1.24024 c 20.95372,-3.29705 41.84577,-14.53451 56.8585,-30.58317 13.00198,-13.89916 21.2568,-29.36902 25.94295,-48.61812 1.28406,-5.2745 1.66663,-15.03138 2.02913,-51.75 l 0.44673,-45.25 h -9.57971 -9.57972 v 42.04216 c 0,34.50677 -0.28467,43.42367 -1.58823,49.75 -2.13184,10.34601 -6.48118,21.31578 -11.58044,29.20784 -5.70379,8.82767 -17.94794,20.79178 -26.444,25.8392 -8.56124,5.08614 -21.51335,9.92308 -28.89449,10.79059 l -5.49284,0.64557 v -8.59067 -8.59068 l 3.75,-1.04143 c 2.0625,-0.57278 4.26676,-1.04394 4.89835,-1.047 0.63159,-0.003 5.20161,-2.03465 10.15559,-4.51462 15.85261,-7.93584 27.93254,-22.72615 32.66246,-39.99096 1.71915,-6.27514 3.49499,-41.5 2.09219,-41.5 -0.40051,0 -4.74003,2.77552 -9.64339,6.16782 l -8.9152,6.16782 v 8.19569 c 0,16.198 -3.45224,25.89769 -12.64895,35.53948 -23.67977,24.82577 -65.03926,13.88588 -73.9897,-19.57081 -0.73569,-2.75 -1.35137,-9.275 -1.36819,-14.5 l -0.0306,-9.5 -8.94123,-6.25 c -4.91767,-3.4375 -9.18425,-6.25 -9.48128,-6.25 -1.18918,0 -0.47359,30.17147 0.88385,37.26618 4.69999,24.56462 22.86141,43.32798 48.07609,49.66951 l 4,1.00601 -0.16744,8.77915 -0.16743,8.77915 -2.83257,-0.32167 c -5.85867,-0.66531 -15.07763,-3.46926 -22.17284,-6.74389 -17.93397,-8.27699 -32.05541,-22.40194 -40.6802,-40.6903 -6.8938,-14.61789 -6.86942,-14.39905 -7.23912,-64.99414 l -0.3343,-45.75 h -9.45305 -9.45305 v 41.55845 c 0,50.06935 0.99217,58.38178 9.11082,76.3307 7.59775,16.79731 24.64902,35.89274 40.52429,45.38249 9.45418,5.65141 24.41186,11.20627 34.91243,12.96548 l 7.53804,1.26288 0.20721,20.75005 0.20721,20.75005 -6,-0.12685 c -3.3,-0.0698 -8.925,-0.50306 -12.5,-0.96286 z m -16,-182.82835 v -16.91797 l 21.66337,15.41797 c 11.91485,8.47988 21.92735,15.41654 22.25,15.41479 0.32265,-0.002 10.26163,-6.90085 22.08663,-15.33135 l 21.5,-15.32819 0.27361,16.83135 c 0.15049,9.25725 0.54145,16.83136 0.8688,16.83136 0.90913,0 16.75566,-11.18559 17.59228,-12.41786 1.03409,-1.52315 0.95184,-56.58214 -0.0845,-56.58214 -0.46741,0 -14.48498,9.675 -31.15016,21.5 -16.66518,11.825 -30.70034,21.5 -31.18925,21.5 -0.48891,0 -14.2434,-9.50137 -30.56553,-21.11415 -16.32213,-11.61279 -30.25454,-21.33593 -30.96091,-21.60699 -1.0272,-0.39418 -1.28431,5.2026 -1.28431,27.95685 v 28.44968 l 8.67986,6.1573 c 4.77393,3.38652 9.04893,6.15731 9.5,6.15731 0.45108,0 0.82014,-7.61308 0.82014,-16.91796 z m 0,-70.05526 v -16.97323 l 21.64942,15.47323 c 11.90719,8.51027 21.91969,15.45793 22.25,15.43925 0.33032,-0.0187 10.27558,-6.9248 22.10058,-15.34692 l 21.5,-15.31295 0.27361,16.84692 c 0.15049,9.26581 0.54335,16.84692 0.87301,16.84692 0.79292,0 13.23467,-8.75246 16.10338,-11.32832 2.23102,-2.00327 2.25,-2.255 2.25,-29.84599 0,-16.79905 -0.37438,-27.82569 -0.94476,-27.82569 -0.51961,0 -14.24952,9.46601 -30.5109,21.03557 -16.26138,11.56956 -30.18333,21.2724 -30.93767,21.56187 -0.76943,0.29526 -14.42252,-8.75244 -31.10011,-20.60955 -16.35071,-11.62472 -30.35362,-21.37571 -31.11756,-21.66886 -1.16528,-0.44716 -1.389,4.05062 -1.389,27.92494 v 28.45794 l 8.75,6.14266 c 4.8125,3.37846 9.0875,6.14553 9.5,6.14904 0.4125,0.004 0.75,-7.63156 0.75,-16.96683 z m 0.95866,-57.27678 c 7.34742,-30.14891 42.19782,-43.84804 67.68307,-26.60513 8.73235,5.90817 16.89906,18.01256 18.07671,26.79263 0.2997,2.23438 0.92314,4.0625 1.38543,4.0625 1.92223,0 15.81082,-10.63149 15.85169,-12.1342 0.0244,-0.89882 -1.82842,-5.39882 -4.11746,-10 -7.98494,-16.05043 -23.94594,-28.9399 -41.2982,-33.35077 -7.58794,-1.92882 -21.19805,-1.91964 -29.42586,0.0199 -14.56872,3.43421 -29.40454,14.11111 -37.9245,27.29314 -3.96803,6.13932 -7.68773,15.21766 -7.02139,17.13648 0.36288,1.04493 13.89144,10.93459 15.04331,10.99696 0.3913,0.0212 1.17754,-1.87397 1.7472,-4.21147 z m -168.439487,269.5 C 78.882862,472.32487 65.219074,451.79449 59.33068,441.12736 22.887874,375.10931 16.062382,295.42423 40.724108,223.90253 c 7.246542,-21.01576 18.471338,-44.01365 28.893885,-59.19916 4.094882,-5.96619 4.834526,-6.57601 7.975918,-6.57601 2.831559,0 3.629825,0.47583 4.380838,2.61132 0.796816,2.26574 0.03247,4.02257 -5.775535,13.27493 -27.860009,44.38202 -41.024799,93.34136 -39.283985,146.09562 1.323311,40.1021 10.111506,74.08932 28.40507,109.85299 5.338864,10.4374 19.282781,32.30937 24.709907,38.75915 6.260443,7.44011 -0.326806,15.21912 -6.906473,8.15599 z m 414.178647,0.96859 c -2.3031,-2.5449 -2.13536,-4.54127 0.6631,-7.89186 4.49824,-5.38575 17.40902,-24.86906 22.54531,-34.02252 14.47177,-25.79034 25.13451,-57.96709 29.75934,-89.80421 2.418,-16.64545 2.41302,-52.41414 -0.01,-69 -5.65561,-38.72209 -18.64649,-74.12487 -38.26628,-104.28441 -6.95772,-10.69541 -7.02301,-15.21559 -0.21976,-15.21559 2.32644,0 3.54361,1.15989 7.60805,7.25 17.69909,26.52012 31.64851,60.46776 38.11188,92.75 6.81813,34.05413 6.81916,73.90922 0.003,108 -7.26023,36.31076 -24.64784,75.28301 -46.62302,104.5 -7.28567,9.68661 -10.25966,11.37804 -13.57142,7.71859 z M 448.7529,139.97938 c -8.51121,-7.5471 -14.04955,-13.16707 -13.74863,-13.95127 0.27716,-0.72226 8.6938,-10.5564 18.70364,-21.85366 15.71967,-17.741435 18.41754,-20.370755 19.79819,-19.295095 0.87915,0.68495 7.3762,6.37206 14.43788,12.63803 l 12.83943,11.392665 -3.02536,3.02536 -3.02535,3.02535 -8.8147,-7.9167 c -4.84809,-4.35418 -9.73703,-8.692595 -10.86432,-9.640915 -1.99161,-1.67542 -2.19739,-1.55632 -7.2719,4.208635 l -5.2223,5.93283 4.75913,4.29138 c 2.61752,2.36025 6.93631,6.3254 9.59732,8.81145 l 4.83819,4.52007 -2.14736,2.72993 c -1.18105,1.50145 -2.55722,2.72992 -3.05816,2.72992 -0.50094,0 -4.9214,-3.6 -9.82324,-8 -4.90184,-4.4 -9.29681,-7.99432 -9.76662,-7.98738 -1.07903,0.0159 -10.37722,10.56 -10.28793,11.66643 0.0364,0.45152 4.97803,5.09595 10.98133,10.32095 6.00329,5.225 10.92348,9.75331 10.93375,10.06291 0.0103,0.3096 -1.24113,1.76987 -2.78088,3.24505 l -2.79956,2.68214 z M 108.28986,127.58999 C 98.045673,114.96054 89.870334,104.62736 90.122436,104.62736 c 0.252102,0 10.873374,2.94034 23.602834,6.53408 12.72946,3.59374 23.31939,6.35916 23.53318,6.14536 0.21379,-0.21379 -0.27084,-11.35415 -1.07697,-24.756365 -0.80612,-13.40221 -1.37821,-24.43479 -1.2713,-24.51685 0.18213,-0.13978 26.08472,31.69977 33.62898,41.336875 l 3.4346,4.38738 -2.9346,2.3988 c -1.61403,1.31934 -3.22561,2.41498 -3.58129,2.43476 -0.35567,0.0198 -5.08067,-5.55842 -10.5,-12.396 -5.41932,-6.837585 -10.24878,-12.462585 -10.73214,-12.500005 -0.48336,-0.0374 -0.61618,2.06946 -0.29516,4.68196 0.32102,2.612505 0.88725,10.440475 1.2583,17.395495 l 0.67463,12.64549 -15.87947,-4.30957 c -8.73371,-2.37026 -16.03973,-4.15047 -16.23559,-3.95603 -0.19587,0.19444 3.59882,5.21828 8.43265,11.16408 4.83382,5.9458 9.31626,11.48554 9.96097,12.31054 0.95178,1.21795 0.57062,2.01006 -2.02711,4.21263 l -3.19931,2.71262 z m 300.28721,-16.63104 c -1.35988,-0.91762 -2.62241,-1.78002 -2.80562,-1.91644 -0.18321,-0.13642 5.16803,-9.782195 11.89165,-21.435035 9.71102,-16.83034 11.93861,-21.37641 10.83312,-22.1082 -0.76541,-0.50666 -3.5287,-2.14762 -6.14064,-3.64656 -2.61194,-1.498948 -4.74776,-2.950358 -4.74627,-3.225358 0.002,-0.275 0.88899,-1.953551 1.9722,-3.730113 l 1.96947,-3.230113 15.77679,9.098614 c 8.67723,5.00424 16.09889,9.28733 16.49256,9.51797 0.86362,0.50599 -2.26145,7.34364 -3.35632,7.34364 -0.42357,0 -3.37499,-1.53372 -6.55871,-3.40827 -3.18371,-1.87454 -6.06547,-3.23713 -6.4039,-3.02797 -0.33842,0.20915 -5.91523,9.61788 -12.39289,20.90826 -6.47767,11.290395 -12.29088,20.527985 -12.91826,20.527985 -0.62737,0 -2.25331,-0.75078 -3.61318,-1.66841 z M 178.60456,88.282915 c 0,-11.73944 -0.29715,-26.20099 -0.66034,-32.136774 -0.46484,-7.597365 -0.33859,-10.677839 0.42648,-10.405562 0.59775,0.212728 11.47668,10.187363 24.17541,22.165856 l 23.08859,21.77908 -4.69257,2.01146 -4.69257,2.01147 -5.2621,-5.19673 -5.2621,-5.19673 -8.8104,3.84916 c -4.84572,2.11704 -9.3441,4.24352 -9.99641,4.72552 -0.81913,0.60527 -1.00651,3.01737 -0.60573,7.79777 l 0.58026,6.921425 -3.61214,1.50925 c -1.98668,0.83009 -3.8516,1.50925 -4.14426,1.50925 -0.29267,0 -0.53212,-9.605 -0.53212,-21.344445 z m 15.73293,-7.932 c 2.87812,-1.22296 5.24062,-2.46063 5.25,-2.75038 0.009,-0.28975 -3.13293,-3.65268 -6.98293,-7.47318 l -7,-6.94636 v 10.33017 c 0,11.63289 -0.89592,10.93119 8.73293,6.83975 z m 194.26707,19.39839 -4.5,-1.66949 -0.5,-7.35679 -0.5,-7.35679 -10,-3.4737 -10,-3.47371 -5.02989,5.52395 -5.02989,5.52395 -3.72171,-1.16488 c -2.04694,-0.64068 -3.59316,-1.55053 -3.43605,-2.02188 0.46327,-1.38979 42.06235,-47.64113 42.47655,-47.226932 0.35969,0.359691 5.19766,63.914887 4.88858,64.220047 -0.0812,0.0801 -2.17259,-0.60556 -4.64759,-1.523775 z m -6.07422,-34.12195 c -0.0948,-5.499998 -0.47511,-9.999998 -0.84521,-9.999998 -0.89441,0 -13.40962,14.004278 -12.93731,14.476588 0.29713,0.29714 12.58325,5.20387 13.65578,5.45374 0.16447,0.0383 0.2215,-4.43033 0.12674,-9.93033 z m -149.92578,21.3972 c 0,-0.34454 -2.03222,-13.46764 -4.51605,-29.162438 -2.48382,-15.694802 -4.39632,-28.62287 -4.25,-28.729041 0.14633,-0.106172 10.83025,7.359907 23.74205,16.591286 12.9118,9.231379 23.60542,16.654913 23.76359,16.496733 0.15817,-0.15817 -1.08487,-8.740126 -2.76232,-19.071011 -1.67745,-10.330884 -2.91651,-18.916825 -2.75346,-19.079868 0.16304,-0.163042 2.07057,-0.441885 4.23896,-0.61965 l 3.94251,-0.323209 4.11457,26 c 2.26302,14.299998 4.41763,27.497738 4.78802,29.328318 l 0.67346,3.32831 -4.74067,-3.41968 C 259.64284,64.512655 236.3393,48.55928 235.92028,48.978303 c -0.27806,0.278059 0.85661,8.743389 2.52149,18.811842 1.66488,10.06846 2.94509,18.36312 2.84492,18.43259 -0.80893,0.56099 -8.68213,1.2881 -8.68213,0.80182 z m 72.09497,-6.51529 c -4.07276,-0.47225 -7.5686,-1.02221 -7.76854,-1.22214 -0.19993,-0.19994 0.31331,-6.84268 1.14054,-14.76164 0.82723,-7.918972 2.11865,-20.368707 2.86983,-27.666081 0.75117,-7.297374 1.63985,-13.542031 1.97484,-13.877016 0.99398,-0.993986 20.79804,1.444168 25.88289,3.186543 11.20946,3.841039 17.91658,13.932992 17.91658,26.958426 0,9.516738 -2.72161,16.106948 -8.89651,21.542308 -7.45285,6.56025 -15.16984,7.9209 -33.11963,5.8396 z m 22.91297,-9.38601 c 10.54855,-5.45487 13.90091,-21.371278 6.53525,-31.028159 -3.85081,-5.048677 -9.30981,-7.491858 -17.31758,-7.750505 l -6.72561,-0.217234 -1.66177,16 c -0.91397,8.8 -1.80724,17.799998 -1.98504,19.999998 l -0.32327,4 4.48504,0.64609 c 5.87622,0.8465 13.6189,0.0946 16.99298,-1.65019 z"
       id="path1184" />
  </g>
</svg>
